<svg width="22" height="22" viewBox="0 0 22 22" fill="none" xmlns="http://www.w3.org/2000/svg">
<path fill-rule="evenodd" clip-rule="evenodd" d="M11 22C4.92487 22 0 17.0751 0 11C0 4.92487 4.92487 0 11 0C17.0751 0 22 4.92487 22 11C22 17.0751 17.0751 22 11 22ZM18.3995 16.1247C19.4086 14.6703 20 12.9042 20 11C20 6.02946 15.9706 2.00002 11 2.00002C6.02946 2.00002 2.00002 6.02946 2.00002 11C2.00002 12.9042 2.59139 14.6703 3.60049 16.1246C4.72412 14.6404 7.36206 14.002 10.9824 14C8.75164 13.9918 6.99997 12.4184 6.99997 9C6.99997 6.75576 8.57907 5 11 5C13.4142 5 15 6.92158 15 9.2C15 12.4709 13.2275 13.9919 11.0176 14C14.638 14.002 17.2759 14.6405 18.3995 16.1247ZM16.9647 17.7398C16.6721 16.6873 14.5694 16 11 16C7.43058 16 5.32796 16.6873 5.03529 17.7397C6.62328 19.1462 8.71194 20 11 20C13.2881 20 15.3767 19.1462 16.9647 17.7398ZM8.99999 9C8.99999 11.2693 9.8182 12 11 12C12.1777 12 13 11.2984 13 9.2C13 7.95041 12.2156 7 11 7C9.73373 7 8.99999 7.81582 8.99999 9Z" fill="#97ADB6"/>
</svg>
