<svg width="25" height="20" viewBox="0 0 25 20" fill="none" xmlns="http://www.w3.org/2000/svg">
<path fill-rule="evenodd" clip-rule="evenodd" d="M6.59669 3.16153C6.67541 3.05209 6.76284 2.91812 6.87433 2.73747C6.91503 2.67152 7.02596 2.4885 7.10864 2.35209L7.10883 2.35178L7.202 2.19824C8.1231 0.691541 8.79266 0 10 0H14.4444C15.6518 0 16.3214 0.691541 17.2424 2.19824L17.3358 2.35209C17.4185 2.4885 17.5294 2.67152 17.5701 2.73747C17.6816 2.91812 17.769 3.05209 17.8478 3.16153C17.8997 3.2337 17.945 3.29104 17.982 3.33333H21.1111C22.9521 3.33333 24.4444 4.82572 24.4444 6.66667V16.6667C24.4444 18.5076 22.9521 20 21.1111 20H3.33333C1.49238 20 0 18.5076 0 16.6667V6.66667C0 4.82572 1.49238 3.33333 3.33333 3.33333H6.46244C6.49943 3.29104 6.54478 3.2337 6.59669 3.16153ZM3.33333 5.55556C2.71968 5.55556 2.22222 6.05302 2.22222 6.66667V16.6667C2.22222 17.2803 2.71968 17.7778 3.33333 17.7778H21.1111C21.7248 17.7778 22.2222 17.2803 22.2222 16.6667V6.66667C22.2222 6.05302 21.7248 5.55556 21.1111 5.55556H17.7778C17.0396 5.55556 16.5418 5.15156 16.0438 4.45917C15.9292 4.29986 15.8156 4.12591 15.679 3.90454C15.6322 3.82874 15.5108 3.62836 15.4274 3.49077L15.4274 3.49066L15.3464 3.35732C14.8439 2.53525 14.5408 2.22222 14.4444 2.22222H10C9.90364 2.22222 9.60056 2.53525 9.098 3.35732L9.01727 3.49038L9.01722 3.49045C8.93383 3.62805 8.81223 3.82868 8.76541 3.90454C8.6288 4.12591 8.51528 4.29986 8.40068 4.45917C7.90263 5.15156 7.40483 5.55556 6.66667 5.55556H3.33333ZM6.66667 11.1111C6.66667 14.1794 9.15397 16.6667 12.2222 16.6667C15.2905 16.6667 17.7778 14.1794 17.7778 11.1111C17.7778 8.04286 15.2905 5.55556 12.2222 5.55556C9.15397 5.55556 6.66667 8.04286 6.66667 11.1111ZM15.5556 11.1111C15.5556 12.9521 14.0632 14.4444 12.2222 14.4444C10.3813 14.4444 8.88889 12.9521 8.88889 11.1111C8.88889 9.27016 10.3813 7.77778 12.2222 7.77778C14.0632 7.77778 15.5556 9.27016 15.5556 11.1111Z" fill="black"/>
</svg>
