<svg width="15" height="28" viewBox="0 0 15 28" fill="none" xmlns="http://www.w3.org/2000/svg">
<path d="M14.4351 0.00582587L10.8373 0C6.7953 0 4.18317 2.70466 4.18317 6.89084V10.068H0.565722C0.253132 10.068 0 10.3237 0 10.6392V15.2425C0 15.558 0.253421 15.8134 0.565722 15.8134H4.18317V27.4291C4.18317 27.7445 4.4363 28 4.74889 28H9.46863C9.78122 28 10.0343 27.7442 10.0343 27.4291V15.8134H14.264C14.5766 15.8134 14.8297 15.558 14.8297 15.2425L14.8314 10.6392C14.8314 10.4877 14.7717 10.3427 14.6658 10.2355C14.5598 10.1283 14.4155 10.068 14.2654 10.068H10.0343V7.37468C10.0343 6.08017 10.34 5.42301 12.0109 5.42301L14.4346 5.42214C14.7469 5.42214 15 5.16638 15 4.8512V0.576761C15 0.261873 14.7472 0.00640846 14.4351 0.00582587Z" fill="white"/>
</svg>
