<svg width="25" height="22" viewBox="0 0 25 22" fill="none" xmlns="http://www.w3.org/2000/svg">
<path fill-rule="evenodd" clip-rule="evenodd" d="M17.0013 1.7601e-05C15.4189 0 14.3988 0.188521 13.2295 0.760882C12.7966 0.972788 12.3904 1.22799 12.0132 1.52571C11.6505 1.24468 11.2606 1.0012 10.8456 0.795928C9.65357 0.206352 8.58119 0 7.05551 0C2.96936 0 0 3.38564 0 7.78278C0 11.1035 1.85154 14.3113 5.3003 17.4131C7.11054 19.0412 9.42184 20.6524 11.0771 21.5096L12.0242 22L12.9712 21.5096C14.6265 20.6524 16.9378 19.0412 18.748 17.4131C22.1968 14.3113 24.0483 11.1035 24.0483 7.78278C24.0483 3.43218 21.051 0.0167883 17.0013 1.7601e-05ZM21.8621 7.78278C21.8621 10.3844 20.3167 13.0619 17.2861 15.7876C15.6338 17.2736 13.5097 18.7587 12.0242 19.5379C10.5387 18.7587 8.41454 17.2736 6.76226 15.7876C3.73167 13.0619 2.18621 10.3844 2.18621 7.78278C2.18621 4.5339 4.24523 2.18621 7.05551 2.18621C8.26857 2.18621 9.01608 2.33005 9.87637 2.75555C10.3845 3.00688 10.8336 3.33875 11.2224 3.75348L12.0267 4.61149L12.8237 3.74668C13.2212 3.31534 13.677 2.97591 14.1906 2.72449C15.0257 2.31574 15.7265 2.18621 16.9968 2.18622C19.7723 2.19773 21.8621 4.57898 21.8621 7.78278Z" fill="#97ADB6"/>
</svg>
