<svg width="30" height="27" viewBox="0 0 30 27" fill="none" xmlns="http://www.w3.org/2000/svg">
<path d="M9.16105 17.5961C9.77507 17.5961 10.2728 17.0983 10.2728 16.4843C10.2728 15.8703 9.77507 15.3725 9.16105 15.3725C8.54703 15.3725 8.04927 15.8703 8.04927 16.4843C8.04927 17.0983 8.54703 17.5961 9.16105 17.5961Z" fill="#1152FD"/>
<path d="M20.8388 17.5961C21.4529 17.5961 21.9506 17.0983 21.9506 16.4843C21.9506 15.8703 21.4529 15.3725 20.8388 15.3725C20.2248 15.3725 19.7271 15.8703 19.7271 16.4843C19.7271 17.0983 20.2248 17.5961 20.8388 17.5961Z" fill="#1152FD"/>
<path d="M29 16.0125C29 14.402 27.8327 13.0601 26.2998 12.7858V12.2999C26.2998 6.06908 21.2307 1 15 1C8.76925 1 3.70017 6.06908 3.70017 12.2999V12.7858C2.16735 13.0601 1 14.4021 1 16.0125C1 17.6368 2.18746 18.9883 3.73974 19.2463C3.95822 21.7359 5.09728 23.5749 7.13572 24.7193C8.94852 25.7371 11.5209 26.2318 15 26.2318C18.4791 26.2318 21.0515 25.737 22.8643 24.7193C24.9027 23.5749 26.0418 21.736 26.2603 19.2463C27.8125 18.9884 29 17.6368 29 16.0125ZM2.15751 16.0125C2.15751 15.0434 2.81092 14.2247 3.7001 13.972V18.053C2.81092 17.8004 2.15751 16.9816 2.15751 16.0125ZM25.1423 18.3355C25.1423 20.8773 24.2118 22.6353 22.2977 23.71C20.6625 24.628 18.2754 25.0743 15 25.0743C11.7247 25.0743 9.33752 24.628 7.70239 23.71C5.78817 22.6353 4.85768 20.8773 4.85768 18.3355V12.2999C4.85768 7.71983 7.90952 3.83987 12.0862 2.58477C15.2681 2.62499 16.9627 4.92192 16.9627 6.58511C16.9627 7.85895 15.9263 8.89535 14.6524 8.89535C13.6972 8.89535 12.92 8.11816 12.92 7.16293C12.92 6.46256 13.4898 5.89271 14.1902 5.89271C14.5098 5.89271 14.769 5.63357 14.769 5.31395C14.769 4.99434 14.5098 4.7352 14.1902 4.7352C12.8516 4.7352 11.7625 5.82427 11.7625 7.16293C11.7625 8.75645 13.0589 10.0529 14.6524 10.0529C16.5646 10.0529 18.1202 8.49724 18.1202 6.58511C18.1202 5.38384 17.5166 4.09141 16.5057 3.12779C16.1013 2.74234 15.6412 2.41831 15.1391 2.15932C20.6676 2.23412 25.1423 6.75389 25.1423 12.2999V18.3355ZM26.2998 18.053V13.9721C27.1891 14.2247 27.8425 15.0435 27.8425 16.0126C27.8425 16.9816 27.189 17.8004 26.2998 18.053Z" fill="#1152FD"/>
<path d="M17.2383 18.0784C16.0041 19.3126 13.9958 19.3126 12.7617 18.0784C12.5356 17.8523 12.1693 17.8523 11.9432 18.0784C11.7172 18.3044 11.7172 18.6708 11.9432 18.8969C12.7859 19.7396 13.893 20.161 15 20.161C16.107 20.161 17.214 19.7396 18.0568 18.8969C18.2828 18.6708 18.2828 18.3044 18.0568 18.0784C17.8307 17.8523 17.4643 17.8523 17.2383 18.0784Z" fill="#1152FD"/>
<path d="M9.16105 17.5961C9.77507 17.5961 10.2728 17.0983 10.2728 16.4843C10.2728 15.8703 9.77507 15.3725 9.16105 15.3725C8.54703 15.3725 8.04927 15.8703 8.04927 16.4843C8.04927 17.0983 8.54703 17.5961 9.16105 17.5961Z" stroke="#1152FC" stroke-width="0.5"/>
<path d="M20.8388 17.5961C21.4529 17.5961 21.9506 17.0983 21.9506 16.4843C21.9506 15.8703 21.4529 15.3725 20.8388 15.3725C20.2248 15.3725 19.7271 15.8703 19.7271 16.4843C19.7271 17.0983 20.2248 17.5961 20.8388 17.5961Z" stroke="#1152FC" stroke-width="0.5"/>
<path d="M29 16.0125C29 14.402 27.8327 13.0601 26.2998 12.7858V12.2999C26.2998 6.06908 21.2307 1 15 1C8.76925 1 3.70017 6.06908 3.70017 12.2999V12.7858C2.16735 13.0601 1 14.4021 1 16.0125C1 17.6368 2.18746 18.9883 3.73974 19.2463C3.95822 21.7359 5.09728 23.5749 7.13572 24.7193C8.94852 25.7371 11.5209 26.2318 15 26.2318C18.4791 26.2318 21.0515 25.737 22.8643 24.7193C24.9027 23.5749 26.0418 21.736 26.2603 19.2463C27.8125 18.9884 29 17.6368 29 16.0125ZM2.15751 16.0125C2.15751 15.0434 2.81092 14.2247 3.7001 13.972V18.053C2.81092 17.8004 2.15751 16.9816 2.15751 16.0125ZM25.1423 18.3355C25.1423 20.8773 24.2118 22.6353 22.2977 23.71C20.6625 24.628 18.2754 25.0743 15 25.0743C11.7247 25.0743 9.33752 24.628 7.70239 23.71C5.78817 22.6353 4.85768 20.8773 4.85768 18.3355V12.2999C4.85768 7.71983 7.90952 3.83987 12.0862 2.58477C15.2681 2.62499 16.9627 4.92192 16.9627 6.58511C16.9627 7.85895 15.9263 8.89535 14.6524 8.89535C13.6972 8.89535 12.92 8.11816 12.92 7.16293C12.92 6.46256 13.4898 5.89271 14.1902 5.89271C14.5098 5.89271 14.769 5.63357 14.769 5.31395C14.769 4.99434 14.5098 4.7352 14.1902 4.7352C12.8516 4.7352 11.7625 5.82427 11.7625 7.16293C11.7625 8.75645 13.0589 10.0529 14.6524 10.0529C16.5646 10.0529 18.1202 8.49724 18.1202 6.58511C18.1202 5.38384 17.5166 4.09141 16.5057 3.12779C16.1013 2.74234 15.6412 2.41831 15.1391 2.15932C20.6676 2.23412 25.1423 6.75389 25.1423 12.2999V18.3355ZM26.2998 18.053V13.9721C27.1891 14.2247 27.8425 15.0435 27.8425 16.0126C27.8425 16.9816 27.189 17.8004 26.2998 18.053Z" stroke="#1152FC" stroke-width="0.5"/>
<path d="M17.2383 18.0784C16.0041 19.3126 13.9958 19.3126 12.7617 18.0784C12.5356 17.8523 12.1693 17.8523 11.9432 18.0784C11.7172 18.3044 11.7172 18.6708 11.9432 18.8969C12.7859 19.7396 13.893 20.161 15 20.161C16.107 20.161 17.214 19.7396 18.0568 18.8969C18.2828 18.6708 18.2828 18.3044 18.0568 18.0784C17.8307 17.8523 17.4643 17.8523 17.2383 18.0784Z" stroke="#1152FC" stroke-width="0.5"/>
</svg>
