<svg width="19" height="27" viewBox="0 0 19 27" fill="none" xmlns="http://www.w3.org/2000/svg">
<path d="M18.0366 8.03914C17.9375 6.8877 17.1566 5.87486 16.0468 5.45898C15.3379 5.19296 15.178 4.54233 15.1463 4.35208C15.3025 4.17934 16.0984 3.97118 16.8369 3.91542C16.9988 3.90293 17.1391 3.79721 17.1957 3.64481C17.2524 3.49246 17.2149 3.32094 17.1 3.20606C14.8354 0.941034 9.52985 0.997623 9.32755 1.00304C9.0807 0.993476 3.27434 0.831954 1.45642 4.96148C1.40578 5.05115 0.249126 7.20802 1.82552 12.3237L1.81947 14.3709C1.81947 17.2141 2.09836 20.1102 4.12444 22.0334C4.44729 22.3399 4.79448 22.6145 5.14958 22.8723V25.5633C5.14958 25.7935 5.33564 25.9796 5.56585 25.9796C5.79606 25.9796 5.98212 25.7935 5.98212 25.5633V23.4478C6.02881 23.4791 6.07564 23.5105 6.12218 23.5416L6.52181 23.8106C6.67958 23.9172 6.83359 24.0312 6.98765 24.1445C7.65369 24.6378 8.34266 25.1473 9.31262 25.1473C10.2821 25.1473 10.9711 24.6378 11.6376 24.1445C11.7912 24.0312 11.9452 23.9172 12.103 23.8106L12.5031 23.5416C12.5495 23.5106 12.5962 23.4792 12.6428 23.448V25.5633C12.6428 25.7935 12.8288 25.9796 13.059 25.9796C13.2893 25.9796 13.4753 25.7935 13.4753 25.5633V22.8723C13.8303 22.6145 14.1776 22.3399 14.5004 22.0334C16.5365 20.1006 16.817 17.1862 16.817 14.3238V13.1446C17.7498 11.2017 18.1601 9.48396 18.0366 8.03914ZM2.20027 5.33326C3.80715 1.68703 9.24091 1.82977 9.31877 1.83519C9.36579 1.83436 13.4758 1.78772 15.7841 3.22601C15.0593 3.3867 14.3083 3.71057 14.3092 4.3654C14.3133 4.42116 14.4316 5.74207 15.7545 6.23869C16.565 6.54217 17.1358 7.27734 17.207 8.11032C17.2777 8.9371 17.1466 9.87726 16.8169 10.9193V10.5773C16.8169 10.1839 16.7395 9.80213 16.5876 9.44245C16.0414 8.14739 14.5095 7.53169 13.102 8.04163C12.5296 8.24896 11.4093 8.4958 9.32374 8.4958C7.23815 8.4958 6.11793 8.24896 5.54551 8.04163C4.13888 7.53086 2.60654 8.14778 2.05909 9.44245C2.04299 9.48055 2.02821 9.51899 2.01382 9.55758C1.53184 6.64213 2.17934 5.37419 2.20027 5.33326ZM15.9844 14.3238C15.9844 17.0001 15.7351 19.7135 13.9271 21.4295C13.6044 21.7359 13.2459 22.0137 12.8768 22.2771C12.8344 22.2978 12.7958 22.3251 12.763 22.3583C12.5234 22.5264 12.2803 22.6889 12.0401 22.8494L11.6355 23.1208C11.4682 23.2345 11.3054 23.3552 11.1426 23.4755C10.5589 23.9068 10.0074 24.3147 9.31262 24.3147C8.61741 24.3147 8.06586 23.9067 7.48221 23.4755C7.31942 23.3552 7.15668 23.2344 6.98935 23.1208L6.58474 22.8494C5.93407 22.4148 5.26178 21.9652 4.6977 21.4295C2.80982 19.6378 2.65206 16.8466 2.65206 14.3721L2.66328 10.5773C2.66328 10.2958 2.71821 10.0228 2.82646 9.76632C3.10955 9.0957 3.79101 8.69562 4.53491 8.69562C4.77468 8.69562 5.02113 8.73723 5.26256 8.82465C5.89738 9.05404 7.11756 9.32834 9.32384 9.32834C11.5301 9.32834 12.7499 9.05404 13.3851 8.82465C14.3776 8.46624 15.4462 8.87919 15.8208 9.76628C15.9295 10.0227 15.9845 10.2958 15.9845 10.5772V14.3238H15.9844Z" fill="#1151FB" stroke="#1151FA" stroke-width="0.5"/>
</svg>
