<svg width="29" height="29" viewBox="0 0 29 29" fill="none" xmlns="http://www.w3.org/2000/svg">
<path fill-rule="evenodd" clip-rule="evenodd" d="M12.5391 8.96965C13.2722 7.98167 13.5351 6.94043 12.7059 6.02133C10.8453 3.41771 9.59389 1.80765 8.80898 1.03228C7.31675 -0.441798 4.86202 -0.242406 3.56964 1.03102C2.87549 1.71499 2.64049 1.94987 1.92776 2.67381C-2.0423 6.646 0.378843 15.0431 6.81514 21.4857C13.25 27.9268 21.6462 30.3493 25.6246 26.3687C26.2823 25.7347 26.8392 25.1775 27.2784 24.7133C28.5449 23.3747 28.7371 21.0282 27.27 19.5038C26.5179 18.7223 24.9825 17.5313 22.2694 15.5906C21.4384 14.8476 20.4531 15.0086 19.5498 15.6012C19.1153 15.8863 18.7991 16.1746 18.202 16.7723L17.1178 17.8572C16.975 18.0001 15.0358 17.0289 13.1535 15.1447C11.2701 13.2595 10.2996 11.3202 10.4418 11.1781C10.7349 10.885 11.0966 10.5232 11.5268 10.0925C11.7162 9.90288 11.8068 9.81108 11.9229 9.68901C12.1649 9.43469 12.3653 9.20389 12.5391 8.96965ZM19.1178 19.8583L20.2023 18.7732C20.5309 18.4443 20.7439 18.2421 20.9171 18.1026C23.2939 19.8094 24.6704 20.8827 25.2326 21.4668C25.5702 21.8176 25.5177 22.4576 25.2243 22.7677C24.8182 23.197 24.2906 23.7249 23.6431 24.3494C21.0705 26.923 14.2928 24.9676 8.81561 19.485C3.33666 14.0006 1.38215 7.22195 3.93529 4.66739C4.64516 3.94643 4.87006 3.72164 5.5543 3.04743C5.81085 2.79464 6.50968 2.73788 6.82177 3.04617C7.42608 3.64313 8.54705 5.07846 10.1961 7.37553C10.1107 7.48151 10.0041 7.60128 9.87433 7.73765C9.7791 7.83774 9.69976 7.91817 9.5263 8.09179C9.09641 8.52211 8.73509 8.88363 8.44237 9.17632C6.59838 11.0202 8.16879 14.1583 11.153 17.1454C14.1352 20.1305 17.2745 21.7027 19.1178 19.8583Z" fill="#3E4958"/>
</svg>
