<svg width="25" height="26" viewBox="0 0 25 26" fill="none" xmlns="http://www.w3.org/2000/svg">
<path d="M23.745 13.3368C23.6404 13.1227 23.6404 12.8773 23.745 12.6633L24.7147 10.6795C25.2546 9.57499 24.8268 8.2585 23.7408 7.6823L21.7903 6.64739C21.5799 6.53577 21.4356 6.33712 21.3945 6.10256L21.013 3.92767C20.8006 2.71676 19.6805 1.90305 18.4634 2.07525L16.2771 2.3845C16.0412 2.41781 15.8078 2.34195 15.6366 2.17635L14.0497 0.64115C13.1661 -0.213691 11.7818 -0.213742 10.8982 0.64115L9.31119 2.1765C9.13996 2.34215 8.90662 2.41786 8.6707 2.38465L6.48444 2.0754C5.26697 1.9031 4.14726 2.71691 3.93484 3.92783L3.55338 6.10261C3.51219 6.33722 3.36793 6.53582 3.15754 6.64749L1.20706 7.6824C0.121062 8.25855 -0.306715 9.57514 0.233185 10.6797L1.20284 12.6634C1.30745 12.8774 1.30745 13.1229 1.20284 13.3369L0.233134 15.3206C-0.306766 16.4251 0.121011 17.7416 1.20701 18.3178L3.15749 19.3527C3.36793 19.4643 3.51219 19.663 3.55338 19.8975L3.93484 22.0724C4.12821 23.1748 5.07345 23.9478 6.1598 23.9477C6.26679 23.9477 6.37536 23.9402 6.48449 23.9248L8.67075 23.6155C8.90652 23.5821 9.14001 23.6581 9.31124 23.8237L10.8982 25.3589C11.3401 25.7864 11.9069 26 12.4739 26C13.0408 25.9999 13.6079 25.7863 14.0496 25.3589L15.6366 23.8237C15.8079 23.6581 16.0413 23.5824 16.2771 23.6155L18.4634 23.9248C19.681 24.097 20.8006 23.2833 21.013 22.0724L21.3945 19.8976C21.4357 19.663 21.58 19.4644 21.7903 19.3527L23.7408 18.3178C24.8268 17.7416 25.2546 16.425 24.7147 15.3205L23.745 13.3368ZM23.038 16.9931L21.0875 18.028C20.4656 18.358 20.0391 18.9449 19.9175 19.6384L19.536 21.8132C19.4642 22.2229 19.0854 22.4981 18.6734 22.44L16.4872 22.1307C15.7899 22.0319 15.1 22.2563 14.594 22.7458L13.007 24.281C12.7081 24.5701 12.2398 24.5701 11.9408 24.281L10.3538 22.7458C9.92615 22.3321 9.36705 22.1079 8.78338 22.1079C8.67644 22.1079 8.56863 22.1154 8.46067 22.1307L6.27441 22.4399C5.86278 22.4981 5.4837 22.2229 5.4118 21.8132L5.03028 19.6383C4.90861 18.9448 4.48216 18.3579 3.86024 18.0279L1.90976 16.993C1.54231 16.7981 1.39759 16.3527 1.58024 15.979L2.54995 13.9952C2.8591 13.3627 2.8591 12.6373 2.54995 12.0047L1.58024 10.021C1.39759 9.6473 1.54231 9.20191 1.90976 9.00696L3.86024 7.97205C4.4821 7.64203 4.90861 7.0551 5.03023 6.36164L5.4117 4.18681C5.4836 3.77711 5.86232 3.50188 6.27431 3.56007L8.46057 3.86933C9.15753 3.96799 9.84769 3.7437 10.3537 3.25422L11.9407 1.71902C12.2396 1.42988 12.708 1.42988 13.007 1.71902L14.5939 3.25422C15.0999 3.74375 15.79 3.96799 16.4871 3.86933L18.6733 3.56007C19.085 3.50183 19.4641 3.77711 19.5359 4.18681L19.9174 6.36169C20.0391 7.05515 20.4655 7.64213 21.0874 7.97205L23.0379 9.00696C23.4054 9.20191 23.5501 9.6473 23.3674 10.021L22.3977 12.0047C22.0886 12.6372 22.0886 13.3627 22.3977 13.9952L23.3674 15.9789C23.5501 16.3527 23.4054 16.7981 23.038 16.9931Z" fill="#1152FD"/>
<path d="M17.9522 7.52154C17.6594 7.22874 17.1846 7.22874 16.8918 7.52154L6.99524 17.4182C6.70243 17.711 6.70243 18.1857 6.99524 18.4785C7.14164 18.6249 7.33354 18.6982 7.52539 18.6982C7.71724 18.6982 7.90919 18.625 8.05554 18.4785L17.9521 8.58194C18.245 8.28909 18.245 7.81439 17.9522 7.52154Z" fill="#1152FD"/>
<path d="M9.4748 6.25201C7.9589 6.25201 6.72559 7.48532 6.72559 9.00123C6.72559 10.5171 7.9589 11.7504 9.4748 11.7504C10.9907 11.7504 12.224 10.5171 12.224 9.00123C12.224 7.48532 10.9907 6.25201 9.4748 6.25201ZM9.4748 10.2508C8.78576 10.2508 8.22519 9.69027 8.22519 9.00118C8.22519 8.31213 8.78576 7.75157 9.4748 7.75157C10.1638 7.75157 10.7245 8.31213 10.7245 9.00118C10.7244 9.69027 10.1638 10.2508 9.4748 10.2508Z" fill="#1152FD"/>
<path d="M15.4731 14.2496C13.9572 14.2496 12.7239 15.4829 12.7239 16.9988C12.7239 18.5148 13.9572 19.7481 15.4731 19.7481C16.989 19.7481 18.2223 18.5148 18.2223 16.9988C18.2223 15.4829 16.989 14.2496 15.4731 14.2496ZM15.4731 18.2485C14.784 18.2485 14.2234 17.6879 14.2234 16.9988C14.2234 16.3098 14.784 15.7492 15.4731 15.7492C16.1621 15.7492 16.7227 16.3098 16.7227 16.9988C16.7227 17.6879 16.1621 18.2485 15.4731 18.2485Z" fill="#1152FD"/>
</svg>
