<svg width="23" height="27" viewBox="0 0 23 27" fill="none" xmlns="http://www.w3.org/2000/svg">
<path d="M21.5924 9.56134C20.1224 0.674601 11.4511 1.00094 11.4051 1.00182C11.318 1.0001 2.64539 0.676761 1.17528 9.56134C0.897894 11.2394 0.949935 13.0224 1.32998 14.8604L3.42586 24.9893C3.49175 25.3104 3.71709 25.5648 4.02698 25.6701C4.33859 25.775 4.67185 25.7104 4.91978 25.4951L7.06176 23.6385V25.7047C7.06176 25.944 7.25549 26.1382 7.49517 26.1382C7.73485 26.1382 7.92858 25.944 7.92858 25.7047V23.516C7.97081 23.5443 8.01298 23.5725 8.05505 23.6006L8.47069 23.8797C8.63497 23.9907 8.79487 24.1094 8.95438 24.2273C9.64869 24.7405 10.3664 25.2714 11.3758 25.2714C12.3852 25.2714 13.1028 24.7409 13.7967 24.2278C13.9566 24.1094 14.117 23.9907 14.2812 23.8797L14.6604 23.624C14.7277 23.5789 14.7953 23.5335 14.8629 23.488V25.7048C14.8629 25.944 15.0566 26.1382 15.2963 26.1382C15.536 26.1382 15.7297 25.944 15.7297 25.7048V23.6589L17.848 25.495C18.0184 25.6423 18.2286 25.7195 18.444 25.7195C18.5428 25.7195 18.6429 25.7031 18.7408 25.6701C19.0507 25.5648 19.2761 25.3104 19.342 24.9897L21.4378 14.8605C21.8178 13.0224 21.8698 11.2394 21.5924 9.56134ZM14.178 22.9041L13.7945 23.162C13.6207 23.2798 13.4508 23.4055 13.2813 23.5308C12.6733 23.9797 12.0995 24.4045 11.3757 24.4045C10.6519 24.4045 10.0777 23.9797 9.47008 23.5303C9.3006 23.4051 9.13117 23.2798 8.95738 23.162L8.53697 22.8798C8.28934 22.7142 8.03861 22.5464 7.79136 22.3731C7.76269 22.3462 7.73048 22.3231 7.69528 22.3047C7.30012 22.0241 6.91594 21.7281 6.5711 21.4011C4.60611 19.5353 4.4414 16.6294 4.4414 14.052C4.4414 12.2327 4.81236 10.7804 5.06073 10.0119C5.72077 10.5727 6.99975 11.4027 8.78446 11.4027C8.96911 11.4027 9.13289 11.2857 9.19357 11.1119C9.25425 10.9377 9.19789 10.7439 9.05316 10.6295C8.38095 10.0969 7.40974 9.07367 7.46002 8.56922C7.4635 8.53456 7.47087 8.46258 7.58354 8.38025C8.41473 8.47559 13.2696 9.25616 18.1171 14.7958C18.2489 14.9462 18.3204 15.1403 18.3182 15.3419C18.3061 16.5727 18.0742 19.6264 16.1825 21.3989C15.5796 21.9645 14.8671 22.4421 14.178 22.9041ZM20.5887 14.6849L18.4928 24.8146C18.4911 24.8224 18.4876 24.8406 18.462 24.8493C18.4364 24.8583 18.4217 24.8454 18.4161 24.8402L15.9614 22.7126C16.2417 22.4995 16.5153 22.2748 16.7749 22.0312C18.9111 20.0298 19.1719 16.6927 19.185 15.3505C19.1888 14.9357 19.0415 14.5362 18.7698 14.2254V14.225C13.2341 7.89916 7.7404 7.51608 7.50852 7.50262C7.43223 7.49874 7.35599 7.51475 7.28794 7.54941C6.76743 7.81379 6.6253 8.20341 6.59756 8.48379C6.53516 9.10833 7.00147 9.80436 7.4964 10.3552C6.0584 9.94349 5.22761 8.97096 5.21764 8.95923C5.12274 8.84395 4.9732 8.78676 4.82542 8.80625C4.67676 8.82662 4.54936 8.92197 4.48823 9.05889C4.45097 9.14211 3.57462 11.1348 3.57462 14.052C3.57462 17.0121 3.86541 20.0277 5.9743 22.0295C6.23578 22.2775 6.51238 22.5055 6.79605 22.721L4.3516 24.8401C4.34595 24.8453 4.33123 24.8583 4.30565 24.8492C4.28007 24.8405 4.27663 24.8224 4.27486 24.8141L2.17899 14.6849C1.82059 12.9518 1.77032 11.2753 2.03033 9.70258C3.37348 1.5865 11.0406 1.85171 11.4051 1.86776C11.7319 1.85171 19.3921 1.57088 20.7373 9.70263C20.9974 11.2754 20.9471 12.9518 20.5887 14.6849Z" fill="#1151FB" stroke="#1151FA" stroke-width="0.5"/>
</svg>
